<svg width="219" height="120" viewBox="0 0 219 120" fill="none" xmlns="http://www.w3.org/2000/svg">
<g clip-path="url(#clip0_1_5)">
<path d="M40.8 106.16C36.4 106.16 33.08 105.24 30.84 103.4C28.68 101.56 27.6 98.92 27.6 95.48C27.6 93.64 27.96 91.68 28.68 89.6C29.48 87.44 30.52 85.36 31.8 83.36L32.52 85.04C30.28 85.92 27.56 86.64 24.36 87.2C21.24 87.76 18.08 88.04 14.88 88.04C10 88.04 6.4 86.84 4.08 84.44C1.76 81.96 0.6 78.4 0.6 73.76C0.6 70.64 1.16 67 2.28 62.84C3.4 58.68 4.88 54.44 6.72 50.12C8.56 45.72 10.56 41.76 12.72 38.24C16.64 31.84 20.88 26.96 25.44 23.6C30.08 20.24 35.8 18.56 42.6 18.56C49.56 18.56 54.48 20.16 57.36 23.36C60.32 26.56 61.8 31.16 61.8 37.16C61.8 40.92 61.36 45.28 60.48 50.24C59.6 55.2 58.32 60.2 56.64 65.24L55.08 63.92C56.04 63.52 57.04 63.24 58.08 63.08C59.2 62.84 60.16 62.72 60.96 62.72C68.32 62.72 72 66.56 72 74.24C72 78.16 70.88 81.16 68.64 83.24C66.4 85.24 63.44 86.24 59.76 86.24C58.56 86.24 57.4 86.16 56.28 86C55.16 85.76 54.2 85.48 53.4 85.16L54.36 84.56C54.92 85.6 55.36 86.92 55.68 88.52C56.08 90.12 56.28 91.68 56.28 93.2C56.28 97.44 54.92 100.68 52.2 102.92C49.56 105.08 45.76 106.16 40.8 106.16ZM24.24 65.96C26 65.96 27.6 65.52 29.04 64.64C30.48 63.68 31.72 62.32 32.76 60.56C33.88 58.8 34.72 56.72 35.28 54.32C35.84 51.92 36.12 49.28 36.12 46.4C36.12 44.32 35.8 42.8 35.16 41.84C34.6 40.8 33.8 40.28 32.76 40.28C31.08 40.28 29.44 40.88 27.84 42.08C26.32 43.2 24.92 44.72 23.64 46.64C22.44 48.56 21.48 50.68 20.76 53C20.04 55.24 19.68 57.44 19.68 59.6C19.68 61.84 20.08 63.48 20.88 64.52C21.76 65.48 22.88 65.96 24.24 65.96ZM104.936 21.56C115.176 21.56 122.816 23.76 127.856 28.16C132.896 32.48 135.416 38.16 135.416 45.2C135.416 50.4 134.096 55.16 131.456 59.48C128.816 63.8 124.856 67.8 119.576 71.48C114.376 75.16 107.856 78.64 100.016 81.92L100.616 79.28C112.056 78.72 120.176 79.6 124.976 81.92C129.856 84.16 132.296 87.72 132.296 92.6C132.296 96.76 130.856 99.96 127.976 102.2C125.096 104.44 120.776 105.56 115.016 105.56C112.136 105.56 108.896 105.44 105.296 105.2C101.696 104.96 98.0963 104.56 94.4963 104C90.8963 103.52 87.5763 102.88 84.5363 102.08C80.9363 101.04 78.3363 99.56 76.7363 97.64C75.2163 95.72 74.4563 93.04 74.4563 89.6C74.4563 86.96 75.1363 84.56 76.4963 82.4C77.8563 80.16 79.9363 77.88 82.7363 75.56C85.6163 73.24 89.2563 70.6 93.6563 67.64C97.6563 65 100.896 62.76 103.376 60.92C105.856 59.08 107.656 57.44 108.776 56C109.976 54.56 110.576 53.12 110.576 51.68C110.576 50.16 109.896 49 108.536 48.2C107.256 47.32 105.216 46.88 102.416 46.88C100.736 46.88 98.9763 47.08 97.1363 47.48C95.3763 47.8 93.4963 48.16 91.4963 48.56C89.5763 48.88 87.4563 49.04 85.1363 49.04C81.7763 49.04 79.2163 48.24 77.4563 46.64C75.7763 45.04 74.9363 42.8 74.9363 39.92C74.9363 36.64 76.1763 33.6 78.6563 30.8C81.1363 28 84.6163 25.76 89.0963 24.08C93.6563 22.4 98.9363 21.56 104.936 21.56ZM176.467 103.16C168.947 103.16 162.347 101.56 156.667 98.36C151.067 95.08 146.707 90.48 143.587 84.56C140.547 78.56 139.027 71.48 139.027 63.32C139.027 54.76 140.627 47.24 143.827 40.76C147.107 34.28 151.667 29.24 157.507 25.64C163.347 22.04 170.227 20.24 178.147 20.24C186.067 20.24 192.947 21.96 198.787 25.4C204.627 28.76 209.147 33.48 212.347 39.56C215.547 45.64 217.147 52.72 217.147 60.8C217.147 69.52 215.467 77.04 212.107 83.36C208.747 89.68 204.027 94.56 197.947 98C191.867 101.44 184.707 103.16 176.467 103.16ZM178.507 78.68C182.347 78.68 185.427 77.24 187.747 74.36C190.067 71.48 191.227 67.12 191.227 61.28C191.227 55.76 190.067 51.68 187.747 49.04C185.427 46.4 182.347 45.08 178.507 45.08C174.667 45.08 171.587 46.4 169.267 49.04C166.947 51.68 165.787 55.76 165.787 61.28C165.787 67.12 166.947 71.48 169.267 74.36C171.587 77.24 174.667 78.68 178.507 78.68Z" fill="white"/>
</g>
<defs>
<clipPath id="clip0_1_5">
<rect width="219" height="120" fill="white"/>
</clipPath>
</defs>
</svg>
